<?xml version="1.0" standalone="no"?>
<!DOCTYPE svg PUBLIC "-//W3C//DTD SVG 20010904//EN"
 "http://www.w3.org/TR/2001/REC-SVG-20010904/DTD/svg10.dtd">
<svg version="1.0" xmlns="http://www.w3.org/2000/svg"
 width="896.000000pt" height="896.000000pt" viewBox="0 0 896.000000 896.000000"
 preserveAspectRatio="xMidYMid meet">
<metadata>
Created by potrace 1.14, written by Peter Selinger 2001-2017
</metadata>
<g transform="translate(0.000000,896.000000) scale(0.100000,-0.100000)"
fill="#000000" stroke="none">
<path d="M4115 8939 c-157 -15 -336 -40 -470 -65 -1352 -258 -2505 -1114
-3143 -2334 -253 -483 -406 -989 -479 -1575 -24 -198 -24 -758 0 -967 38 -317
105 -630 196 -903 65 -197 88 -257 164 -430 113 -258 290 -564 465 -803 72
-99 193 -255 212 -272 3 -3 39 -43 80 -90 223 -253 507 -502 810 -711 83 -58
277 -179 285 -179 4 0 19 -8 33 -19 59 -41 297 -157 537 -261 71 -31 336 -120
460 -155 404 -113 775 -162 1220 -163 413 0 723 39 1119 139 979 250 1850 833
2466 1654 466 621 762 1350 855 2110 9 72 18 146 21 165 13 85 11 670 -2 810
-42 437 -166 938 -324 1305 -50 117 -68 157 -127 275 -116 232 -233 427 -381
628 -72 99 -193 255 -212 272 -3 3 -39 43 -80 90 -186 211 -442 444 -673 614
-669 491 -1440 784 -2262 860 -165 15 -627 18 -770 5z"/>
</g>
</svg>
